# xmcd
#
# Track frame offsets:
#  150
#  11929
#  24085
#  37683
#  48947
#  63547
#  75756
#  86843
#  97391
#  108414
#  119884
#  130514
#  142175
#  152712
#  164966
#  177042
#  189017
#  199561
#  208936
#  220498
#  230690
#  242096
#  253579
#  267204
#  279700
#  290621
#  301960
#  313222
#
# Disc length: 4344 seconds
#
# Revision: 0
# Processed by: cddbd v1.5.1PL2 Copyright (c) Steve Scherf et al.
# Submitted via: Collectorz.com_Music_Collector 6.9
#
DISCID=9f10f61c
DTITLE=Various Artist - Sick, Sober and Sorry [CD3] - Great Country Hits Of 1953
DYEAR=2004
DGENRE=Country
TTITLE0=Goldie Hill - I Let The Stars Get In My Eyes
TTITLE1=Faron Young - Goin' Steady
TTITLE2=Darrell Glenn - Crying In The Chapel
TTITLE3=Hank Snow - (Now And Then There's) A Fool Such As I
TTITLE4=Red Foley - Midnight
TTITLE5=Marty Robbins - I'll Go On Alone
TTITLE6=Hank Williams - I'll Never Get Out Of This World Alive
TTITLE7=Carl Smith - Trademark
TTITLE8=The Carlisles - No Help Wanted
TTITLE9=Ernest Tubb and Red Foley - No Help Wanted No.2
TTITLE10=Eddy Arnold - Eddy's Song
TTITLE11=Hank Williams - Kaw-Liga
TTITLE12=Bonnie Lou - Seven Lonely Days
TTITLE13=Hank Williams - Your Cheatin' Heart
TTITLE14=Jim Reeves - Mexican Joe
TTITLE15=Hank Williams - Take These Chains From My Heart
TTITLE16=Webb Pierce - It's Been So Long
TTITLE17=The Carlisles - Is Zat You, Myrtle ?
TTITLE18=Sonny James - That's Me Without You
TTITLE19=Hank Thompson - Rub-A-Dub-Dub
TTITLE20=Carl Smith - Hey Joe !
TTITLE21=Jean Shepard and Ferlin Husky - A Dear John Letter
TTITLE22=Davis Sisters - I Forgot More Than You'll Ever Know
TTITLE23=Marty Robbins - I Couldn't Keep From Crying
TTITLE24=Webb Pierce - There Stands The Glass
TTITLE25=Mitchell Torok - Caribbean
TTITLE26=Hank Locklin - Let Me Be The One
TTITLE27=Homer and Jethro - How Much Is That Hound Dog In The Window ?
EXTD=
EXTT0=
EXTT1=
EXTT2=
EXTT3=
EXTT4=
EXTT5=
EXTT6=
EXTT7=
EXTT8=
EXTT9=
EXTT10=
EXTT11=
EXTT12=
EXTT13=
EXTT14=
EXTT15=
EXTT16=
EXTT17=
EXTT18=
EXTT19=
EXTT20=
EXTT21=
EXTT22=
EXTT23=
EXTT24=
EXTT25=
EXTT26=
EXTT27=
PLAYORDER=
